  0
SECTION
  2
HEADER
  9
$ACADVER
  1
AC1014
  9
$HANDSEED
  5
FFFF
  9
$MEASUREMENT
 70
     1
  0
ENDSEC
  0
SECTION
  2
TABLES
  0
TABLE
  2
VPORT
  5
8
330
0
100
AcDbSymbolTable
 70
     4
  0
VPORT
  5
2E
330
8
100
AcDbSymbolTableRecord
100
AcDbViewportTableRecord
  2
*ACTIVE
 70
     0
 10
0.0
 20
0.0
 11
1.0
 21
1.0
 12
210.0
 22
148.5
 13
0.0
 23
0.0
 14
10.0
 24
10.0
 15
10.0
 25
10.0
 16
0.0
 26
0.0
 36
1.0
 17
0.0
 27
0.0
 37
0.0
 40
341.0
 41
1.24
 42
50.0
 43
0.0
 44
0.0
 50
0.0
 51
0.0
 71
     0
 72
   100
 73
     1
 74
     3
 75
     0
 76
     0
 77
     0
 78
     0
  0
ENDTAB
  0
TABLE
  2
LTYPE
  5
5
330
0
100
AcDbSymbolTable
 70
     1
  0
LTYPE
  5
14
330
5
100
AcDbSymbolTableRecord
100
AcDbLinetypeTableRecord
  2
BYBLOCK
 70
     0
  3

 72
    65
 73
     0
 40
0.0
  0
LTYPE
  5
15
330
5
100
AcDbSymbolTableRecord
100
AcDbLinetypeTableRecord
  2
BYLAYER
 70
     0
  3

 72
    65
 73
     0
 40
0.0
  0
LTYPE
  5
16
330
5
100
AcDbSymbolTableRecord
100
AcDbLinetypeTableRecord
  2
CONTINUOUS
 70
     0
  3
Solid line
 72
    65
 73
     0
 40
0.0
  0
ENDTAB
  0
TABLE
  2
LAYER
  5
2
100
AcDbSymbolTable
 70
2
  0
LAYER
  5
50
100
AcDbSymbolTableRecord
100
AcDbLayerTableRecord
  2
0
 70
0
  6
CONTINUOUS
  0
LAYER
  5
51
100
AcDbSymbolTableRecord
100
AcDbLayerTableRecord
  2
Layer_1
 70
0
  6
CONTINUOUS
  0
ENDTAB
  0
TABLE
  2
STYLE
  5
3
330
0
100
AcDbSymbolTable
 70
     1
  0
STYLE
  5
11
330
3
100
AcDbSymbolTableRecord
100
AcDbTextStyleTableRecord
  2
STANDARD
 70
     0
 40
0.0
 41
1.0
 50
0.0
 71
     0
 42
2.5
  3
txt
  4

  0
ENDTAB
  0
TABLE
  2
VIEW
  5
6
330
0
100
AcDbSymbolTable
 70
     0
  0
ENDTAB
  0
TABLE
  2
UCS
  5
7
330
0
100
AcDbSymbolTable
 70
     0
  0
ENDTAB
  0
TABLE
  2
APPID
  5
9
330
0
100
AcDbSymbolTable
 70
     2
  0
APPID
  5
12
330
9
100
AcDbSymbolTableRecord
100
AcDbRegAppTableRecord
  2
ACAD
 70
     0
  0
ENDTAB
  0
TABLE
  2
DIMSTYLE
  5
A
330
0
100
AcDbSymbolTable
 70
     1
  0
DIMSTYLE
105
27
330
A
100
AcDbSymbolTableRecord
100
AcDbDimStyleTableRecord
  2
ISO-25
 70
     0
  3

  4

  5

  6

  7

 40
1.0
 41
2.5
 42
0.625
 43
3.75
 44
1.25
 45
0.0
 46
0.0
 47
0.0
 48
0.0
140
2.5
141
2.5
142
0.0
143
0.03937007874016
144
1.0
145
0.0
146
1.0
147
0.625
 71
     0
 72
     0
 73
     0
 74
     0
 75
     0
 76
     0
 77
     1
 78
     8
170
     0
171
     3
172
     1
173
     0
174
     0
175
     0
176
     0
177
     0
178
     0
270
     2
271
     2
272
     2
273
     2
274
     3
340
11
275
     0
280
     0
281
     0
282
     0
283
     0
284
     8
285
     0
286
     0
287
     3
288
     0
  0
ENDTAB
  0
TABLE
  2
BLOCK_RECORD
  5
1
330
0
100
AcDbSymbolTable
 70
     1
  0
BLOCK_RECORD
  5
1F
330
1
100
AcDbSymbolTableRecord
100
AcDbBlockTableRecord
  2
*MODEL_SPACE
  0
BLOCK_RECORD
  5
1B
330
1
100
AcDbSymbolTableRecord
100
AcDbBlockTableRecord
  2
*PAPER_SPACE
  0
ENDTAB
  0
ENDSEC
  0
SECTION
  2
BLOCKS
  0
BLOCK
  5
20
330
1F
100
AcDbEntity
  8
0
100
AcDbBlockBegin
  2
*MODEL_SPACE
 70
     0
 10
0.0
 20
0.0
 30
0.0
  3
*MODEL_SPACE
  1

  0
ENDBLK
  5
21
330
1F
100
AcDbEntity
  8
0
100
AcDbBlockEnd
  0
BLOCK
  5
1C
330
1B
100
AcDbEntity
 67
     1
  8
0
100
AcDbBlockBegin
  2
*PAPER_SPACE
  1

  0
ENDBLK
  5
1D
330
1B
100
AcDbEntity
 67
     1
  8
0
100
AcDbBlockEnd
  0
ENDSEC
  0
SECTION
  2
ENTITIES
  0
LWPOLYLINE
  5
100
100
AcDbEntity
  8
Layer_1
 62
7
100
AcDbPolyline
 90
216
 70
1
 10
23.876880
 20
22.681693
 30
0.0
 10
23.557813
 20
22.930508
 30
0.0
 10
23.064380
 20
22.851609
 30
0.0
 10
22.521860
 20
22.742627
 30
0.0
 10
22.296040
 20
22.972523
 30
0.0
 10
21.993916
 20
23.470866
 30
0.0
 10
21.833971
 20
23.661101
 30
0.0
 10
21.638452
 20
23.906555
 30
0.0
 10
21.473854
 20
24.173335
 30
0.0
 10
21.312543
 20
24.578756
 30
0.0
 10
21.197662
 20
25.078765
 30
0.0
 10
21.133178
 20
25.278764
 30
0.0
 10
21.211541
 20
25.451537
 30
0.0
 10
21.289904
 20
25.624336
 30
0.0
 10
21.189642
 20
25.784250
 30
0.0
 10
21.089380
 20
25.960331
 30
0.0
 10
21.225412
 20
26.191100
 30
0.0
 10
21.337364
 20
26.512860
 30
0.0
 10
21.170082
 20
26.874836
 30
0.0
 10
20.870771
 20
27.454221
 30
0.0
 10
20.678419
 20
28.041887
 30
0.0
 10
20.666502
 20
28.413309
 30
0.0
 10
20.690825
 20
28.521550
 30
0.0
 10
20.524394
 20
28.674083
 30
0.0
 10
20.233582
 20
28.925595
 30
0.0
 10
20.123221
 20
29.111042
 30
0.0
 10
20.149531
 20
29.209731
 30
0.0
 10
20.305051
 20
29.120408
 30
0.0
 10
20.489381
 20
29.063364
 30
0.0
 10
20.331731
 20
29.210446
 30
0.0
 10
20.184157
 20
29.424653
 30
0.0
 10
20.194235
 20
29.510960
 30
0.0
 10
20.348059
 20
29.467833
 30
0.0
 10
20.587064
 20
29.271432
 30
0.0
 10
20.714383
 20
29.183802
 30
0.0
 10
20.614084
 20
29.382160
 30
0.0
 10
20.545098
 20
29.591102
 30
0.0
 10
20.589147
 20
29.640209
 30
0.0
 10
20.696133
 20
29.516886
 30
0.0
 10
20.818606
 20
29.249181
 30
0.0
 10
20.902529
 20
29.047992
 30
0.0
 10
21.103022
 20
29.142104
 30
0.0
 10
21.382475
 20
29.160625
 30
0.0
 10
21.227485
 20
28.930411
 30
0.0
 10
21.038742
 20
28.648947
 30
0.0
 10
20.989384
 20
28.366451
 30
0.0
 10
20.940025
 20
28.042866
 30
0.0
 10
21.285025
 20
27.204269
 30
0.0
 10
21.339383
 20
27.148019
 30
0.0
 10
21.528860
 20
27.252265
 30
0.0
 10
21.680837
 20
27.387837
 30
0.0
 10
21.712367
 20
27.633397
 30
0.0
 10
21.743898
 20
27.878930
 30
0.0
 10
22.172891
 20
28.082263
 30
0.0
 10
22.601883
 20
28.285542
 30
0.0
 10
22.609191
 20
28.433365
 30
0.0
 10
22.527094
 20
28.623812
 30
0.0
 10
22.406370
 20
28.666436
 30
0.0
 10
22.281734
 20
28.541447
 30
0.0
 10
22.103183
 20
28.416458
 30
0.0
 10
21.928218
 20
28.650085
 30
0.0
 10
21.910960
 20
28.811243
 30
0.0
 10
22.039694
 20
28.931654
 30
0.0
 10
22.454514
 20
29.121572
 30
0.0
 10
22.651882
 20
29.128716
 30
0.0
 10
22.496345
 20
29.209970
 30
0.0
 10
22.076810
 20
29.291223
 30
0.0
 10
21.803185
 20
29.322470
 30
0.0
 10
21.963490
 20
29.562844
 30
0.0
 10
22.231867
 20
29.642987
 30
0.0
 10
22.259255
 20
29.751730
 30
0.0
 10
21.722618
 20
29.890346
 30
0.0
 10
21.602016
 20
29.965593
 30
0.0
 10
21.598867
 20
30.061346
 30
0.0
 10
21.753587
 20
30.116644
 30
0.0
 10
22.236002
 20
30.095213
 30
0.0
 10
22.637841
 20
30.023881
 30
0.0
 10
22.587841
 20
30.150987
 30
0.0
 10
22.028083
 20
30.517408
 30
0.0
 10
21.877108
 20
30.558736
 30
0.0
 10
21.709617
 20
30.487457
 30
0.0
 10
21.464385
 20
30.523388
 30
0.0
 10
21.583856
 20
30.748231
 30
0.0
 10
21.921880
 20
30.930740
 30
0.0
 10
22.140434
 20
30.995537
 30
0.0
 10
22.346159
 20
30.920554
 30
0.0
 10
22.597048
 20
30.827659
 30
0.0
 10
22.534548
 20
31.027207
 30
0.0
 10
22.143173
 20
31.442921
 30
0.0
 10
21.766280
 20
31.641199
 30
0.0
 10
21.614477
 20
31.703588
 30
0.0
 10
21.566369
 20
31.774338
 30
0.0
 10
21.789384
 20
31.911021
 30
0.0
 10
22.001885
 20
32.039371
 30
0.0
 10
22.202353
 20
31.982433
 30
0.0
 10
22.918438
 20
31.547325
 30
0.0
 10
23.034993
 20
31.434904
 30
0.0
 10
22.979688
 20
31.669298
 30
0.0
 10
22.595762
 20
32.289481
 30
0.0
 10
22.414512
 20
32.486289
 30
0.0
 10
22.414379
 20
32.568884
 30
0.0
 10
22.695629
 20
32.551818
 30
0.0
 10
23.283917
 20
32.409311
 30
0.0
 10
23.691706
 20
32.157269
 30
0.0
 10
23.897168
 20
32.037916
 30
0.0
 10
24.248880
 20
32.118111
 30
0.0
 10
24.958263
 20
32.134780
 30
0.0
 10
25.010862
 20
32.078529
 30
0.0
 10
24.931371
 20
31.950233
 30
0.0
 10
24.588840
 20
31.680728
 30
0.0
 10
24.251340
 20
31.480095
 30
0.0
 10
24.176879
 20
31.420696
 30
0.0
 10
24.270629
 20
31.402969
 30
0.0
 10
24.364380
 20
31.352407
 30
0.0
 10
24.849312
 20
31.602861
 30
0.0
 10
25.334243
 20
31.886309
 30
0.0
 10
25.523369
 20
31.894247
 30
0.0
 10
25.788437
 20
31.829371
 30
0.0
 10
25.864379
 20
31.690544
 30
0.0
 10
25.580920
 20
31.535578
 30
0.0
 10
24.876884
 20
31.103910
 30
0.0
 10
24.751884
 20
30.988102
 30
0.0
 10
24.914384
 20
31.092163
 30
0.0
 10
25.143784
 20
31.243001
 30
0.0
 10
25.700713
 20
31.390083
 30
0.0
 10
25.795967
 20
31.298114
 30
0.0
 10
25.865050
 20
31.207071
 30
0.0
 10
25.757933
 20
31.142777
 30
0.0
 10
25.150452
 20
30.666739
 30
0.0
 10
24.989862
 20
30.515979
 30
0.0
 10
24.953484
 20
30.429540
 30
0.0
 10
24.889683
 20
30.328601
 30
0.0
 10
24.789383
 20
30.197633
 30
0.0
 10
24.789383
 20
30.111908
 30
0.0
 10
24.883134
 20
30.168581
 30
0.0
 10
25.114384
 20
30.316589
 30
0.0
 10
25.393698
 20
30.497882
 30
0.0
 10
25.535514
 20
30.587893
 30
0.0
 10
25.681199
 20
30.486849
 30
0.0
 10
25.848300
 20
30.365723
 30
0.0
 10
25.423472
 20
29.975806
 30
0.0
 10
25.189383
 20
29.823221
 30
0.0
 10
25.560897
 20
29.828248
 30
0.0
 10
25.932411
 20
29.846240
 30
0.0
 10
26.036907
 20
29.777078
 30
0.0
 10
26.121643
 20
29.689156
 30
0.0
 10
25.689384
 20
29.541493
 30
0.0
 10
25.183201
 20
29.307998
 30
0.0
 10
25.089451
 20
29.187559
 30
0.0
 10
25.325650
 20
29.020528
 30
0.0
 10
25.639539
 20
28.715596
 30
0.0
 10
25.709521
 20
28.476280
 30
0.0
 10
25.701888
 20
28.390714
 30
0.0
 10
25.500259
 20
28.512131
 30
0.0
 10
25.298632
 20
28.633548
 30
0.0
 10
25.003385
 20
28.651805
 30
0.0
 10
24.708138
 20
28.670061
 30
0.0
 10
24.759990
 20
28.599311
 30
0.0
 10
25.261821
 20
28.315546
 30
0.0
 10
25.604764
 20
28.234028
 30
0.0
 10
25.763582
 20
28.017175
 30
0.0
 10
25.914388
 20
27.703855
 30
0.0
 10
26.053336
 20
27.503698
 30
0.0
 10
26.228979
 20
27.337011
 30
0.0
 10
26.283781
 20
27.266473
 30
0.0
 10
26.434862
 20
27.522695
 30
0.0
 10
26.625804
 20
28.070383
 30
0.0
 10
26.701853
 20
28.590606
 30
0.0
 10
26.719924
 20
28.819021
 30
0.0
 10
26.620094
 20
28.904482
 30
0.0
 10
26.480262
 20
29.089902
 30
0.0
 10
26.229037
 20
29.226030
 30
0.0
 10
26.076805
 20
29.343875
 30
0.0
 10
26.162398
 20
29.449867
 30
0.0
 10
26.373476
 20
29.437432
 30
0.0
 10
26.677035
 20
29.448809
 30
0.0
 10
26.727573
 20
29.622693
 30
0.0
 10
26.882328
 20
29.853939
 30
0.0
 10
27.092976
 20
29.941146
 30
0.0
 10
27.189195
 20
29.909925
 30
0.0
 10
27.077501
 20
29.683468
 30
0.0
 10
26.965992
 20
29.488232
 30
0.0
 10
27.058938
 20
29.562209
 30
0.0
 10
27.212488
 20
29.701169
 30
0.0
 10
27.393739
 20
29.766177
 30
0.0
 10
27.514381
 20
29.684659
 30
0.0
 10
27.333131
 20
29.467568
 30
0.0
 10
27.126909
 20
29.310353
 30
0.0
 10
27.491042
 20
29.436638
 30
0.0
 10
27.582180
 20
29.389966
 30
0.0
 10
27.318962
 20
29.165943
 30
0.0
 10
27.097432
 20
29.007563
 30
0.0
 10
27.026320
 20
28.518269
 30
0.0
 10
26.568569
 20
27.306504
 30
0.0
 10
26.289494
 20
26.856501
 30
0.0
 10
26.363604
 20
26.638458
 30
0.0
 10
26.437597
 20
26.448249
 30
0.0
 10
26.397889
 20
26.216183
 30
0.0
 10
26.358179
 20
25.984117
 30
0.0
 10
26.424499
 20
25.756390
 30
0.0
 10
26.490819
 20
25.528663
 30
0.0
 10
26.444172
 20
25.366526
 30
0.0
 10
26.397526
 20
25.204363
 30
0.0
 10
26.469864
 20
25.049794
 30
0.0
 10
26.542201
 20
24.895224
 30
0.0
 10
26.377380
 20
24.657178
 30
0.0
 10
26.212561
 20
24.419106
 30
0.0
 10
26.264699
 20
24.211408
 30
0.0
 10
26.328455
 20
23.964129
 30
0.0
 10
26.137441
 20
23.641549
 30
0.0
 10
25.862106
 20
23.168077
 30
0.0
 10
25.789403
 20
22.977683
 30
0.0
 10
25.320642
 20
22.822637
 30
0.0
 10
24.465804
 20
22.579379
 30
0.0
 10
24.078303
 20
22.492384
 30
0.0
 10
23.876880
 20
22.681588
 30
0.0
  0
ENDSEC
  0
SECTION
  2
OBJECTS
  0
DICTIONARY
  5
C
330
0
100
AcDbDictionary
  3
ACAD_GROUP
350
D
  3
ACAD_MLINESTYLE
350
17
  0
DICTIONARY
  5
D
330
C
100
AcDbDictionary
  0
DICTIONARY
  5
1A
330
C
100
AcDbDictionary
  0
DICTIONARY
  5
17
330
C
100
AcDbDictionary
  3
STANDARD
350
18
  0
DICTIONARY
  5
19
330
C
100
AcDbDictionary
  0
ENDSEC
  0
EOF
